<?xml version="1.0" encoding="UTF-8" standalone="no"?>
<svg
   viewBox="0 0 42.196015 42.467907"
   version="1.1"
   id="svg19"
   sodipodi:docname="magnifying-glass-solid.svg"
   inkscape:export-filename="magnifying-glass-solid.svg"
   inkscape:export-xdpi="96"
   inkscape:export-ydpi="96"
   width="42.196014"
   height="42.467907"
   inkscape:version="1.2.1 (9c6d41e410, 2022-07-14)"
   xmlns:inkscape="http://www.inkscape.org/namespaces/inkscape"
   xmlns:sodipodi="http://sodipodi.sourceforge.net/DTD/sodipodi-0.dtd"
   xmlns="http://www.w3.org/2000/svg"
   xmlns:svg="http://www.w3.org/2000/svg">
  <defs
     id="defs23">
    <filter
       inkscape:collect="always"
       style="color-interpolation-filters:sRGB"
       id="filter3188"
       x="-0.8178703"
       y="-0.79618112"
       width="2.6357406"
       height="2.5923622">
      <feGaussianBlur
         inkscape:collect="always"
         stdDeviation="12.68203"
         id="feGaussianBlur3190" />
    </filter>
  </defs>
  <sodipodi:namedview
     id="namedview21"
     pagecolor="#ffffff"
     bordercolor="#000000"
     borderopacity="0.25"
     inkscape:showpageshadow="2"
     inkscape:pageopacity="0.0"
     inkscape:pagecheckerboard="0"
     inkscape:deskcolor="#d1d1d1"
     showgrid="false"
     inkscape:zoom="9.4354561"
     inkscape:cx="30.099234"
     inkscape:cy="34.444546"
     inkscape:window-width="1282"
     inkscape:window-height="729"
     inkscape:window-x="2734"
     inkscape:window-y="70"
     inkscape:window-maximized="0"
     inkscape:current-layer="svg19" />
  <!--! Font Awesome Pro 6.2.1 by @fontawesome - https://fontawesome.com License - https://fontawesome.com/license (Commercial License) Copyright 2022 Fonticons, Inc. -->
  <path
     d="m 413.1503,205.84706 c 0,45.9 -14.9,88.3 -40,122.7 l 126.6,126.7 c 12.5,12.5 12.5,32.8 0,45.3 -12.5,12.5 -32.8,12.5 -45.3,0 l -126.6,-126.7 c -34.4,25.2 -76.8,40 -122.7,40 -114.899998,0 -207.9999978,-93.1 -207.9999978,-208 0,-114.900002 93.0999998,-208.0000022 207.9999978,-208.0000022 114.9,0 208,93.1000002 208,208.0000022 z m -208,144 c 79.5,0 144,-64.5 144,-144 0,-79.5 -64.5,-144.000002 -144,-144.000002 -79.5,0 -143.999998,64.500002 -143.999998,144.000002 0,79.5 64.499998,144 143.999998,144 z"
     id="path17"
     style="display:none" />
  <path
     style="display:none;fill:#666666;stroke-width:0.0442386;filter:url(#filter3188)"
     d="M 37.864747,42.392673 C 37.738133,42.361193 37.50237,42.26842 37.340829,42.186513 37.069864,42.049124 36.678469,41.65981 32.287224,37.15976 l -4.759894,-4.877835 -0.348305,0.249774 c -1.667772,1.195969 -3.724954,2.07754 -5.783956,2.478624 -0.974118,0.189754 -1.635619,0.248607 -2.794229,0.248607 -1.158609,0 -1.82011,-0.05885 -2.794229,-0.248607 C 10.400932,33.957327 5.9833762,29.992572 4.2437105,24.632627 3.4029775,22.042313 3.2527389,19.06947 3.8283671,16.414044 4.6453212,12.645356 6.7793354,9.3406565 9.8463025,7.0947686 14.593953,3.6181439 20.951514,3.2720222 26.001049,6.2152652 c 4.36415,2.5437491 7.204791,7.0478928 7.661837,12.1486778 0.05801,0.647467 0.05643,2.085402 -0.0031,2.771454 -0.220533,2.54344 -1.057817,4.992124 -2.452242,7.171711 l -0.396339,0.619506 4.674671,4.804353 c 3.406683,3.501189 4.72333,4.882508 4.854054,5.092485 0.595647,0.95675 0.435724,2.223056 -0.378747,2.99898 -0.554024,0.527804 -1.372154,0.750333 -2.096483,0.570241 z M 20.150764,30.424539 c 3.156167,-0.512512 5.884627,-2.401165 7.492728,-5.186503 1.288353,-2.231513 1.744616,-4.885813 1.281952,-7.457724 -0.847426,-4.710769 -4.64004,-8.2869988 -9.296037,-8.7656589 -0.65144,-0.066972 -2.015866,-0.030451 -2.64398,0.070768 -3.658157,0.5895069 -6.762596,3.1253559 -8.1400693,6.6491849 -1.351583,3.457593 -0.8553831,7.4377 1.2999353,10.427003 0.475088,0.658919 1.219589,1.456209 1.841083,1.971621 1.555214,1.289759 3.535109,2.133557 5.522968,2.353796 0.536428,0.05943 2.121542,0.02193 2.64142,-0.06249 z"
     id="path570" />
  <path
     style="display:inline;opacity:1;fill:#3d00cc;fill-opacity:1;stroke-width:0.0442386"
     d="m 39.030563,41.544807 c -0.126614,-0.03148 -0.362377,-0.124253 -0.523918,-0.20616 -0.270965,-0.137389 -0.66236,-0.526703 -5.053605,-5.026753 l -4.759894,-4.877835 -0.348305,0.249774 c -1.667772,1.195969 -3.724954,2.07754 -5.783956,2.478624 -0.974118,0.189754 -1.635619,0.248607 -2.794229,0.248607 -1.158609,0 -1.82011,-0.05885 -2.794229,-0.248607 C 11.566748,33.109461 7.1491916,29.144706 5.4095259,23.784761 4.5687929,21.194447 4.4185543,18.221604 4.9941825,15.566178 5.8111366,11.79749 7.9451508,8.4927907 11.012118,6.2469028 15.759769,2.7702781 22.11733,2.4241564 27.166865,5.3673994 c 4.36415,2.5437491 7.204791,7.0478926 7.661837,12.1486776 0.05801,0.647467 0.05643,2.085402 -0.0031,2.771454 -0.220533,2.54344 -1.057817,4.992124 -2.452242,7.171711 l -0.396339,0.619506 4.674671,4.804353 c 3.406683,3.501189 4.72333,4.882508 4.854054,5.092485 0.595647,0.95675 0.435724,2.223056 -0.378747,2.99898 -0.554024,0.527804 -1.372154,0.750333 -2.096483,0.570241 z M 21.31658,29.576673 c 3.156167,-0.512512 5.884627,-2.401165 7.492728,-5.186503 1.288353,-2.231513 1.744616,-4.885813 1.281952,-7.457724 -0.847426,-4.710769 -4.64004,-8.2869986 -9.296037,-8.7656587 -0.65144,-0.066972 -2.015866,-0.030451 -2.64398,0.070768 -3.658157,0.5895069 -6.762596,3.1253557 -8.14007,6.6491847 -1.3515829,3.457593 -0.855383,7.4377 1.299936,10.427003 0.475088,0.658919 1.219589,1.456209 1.841083,1.971621 1.555214,1.289759 3.535109,2.133557 5.522968,2.353796 0.536428,0.05943 2.121542,0.02193 2.64142,-0.06249 z"
     id="path267" />
  <path
     style="display:none;opacity:0;fill:#3d00cc;fill-opacity:1;stroke-width:0.0451701"
     d="m 38.974071,41.543442 c -0.129138,-0.03218 -0.369601,-0.127009 -0.534363,-0.210733 -0.276367,-0.140436 -0.675564,-0.538384 -5.154349,-5.13824 l -4.854783,-4.98602 -0.355249,0.255314 c -1.701019,1.222494 -3.799211,2.123617 -5.89926,2.533597 -0.993537,0.193962 -1.668225,0.254121 -2.849932,0.254121 -1.181706,0 -1.856394,-0.06016 -2.849933,-0.254121 C 10.96276,32.92101 6.4571392,28.868321 4.682793,23.389499 3.8252999,20.741734 3.6720662,17.702957 4.2591697,14.988637 5.0924099,11.136364 7.268966,7.75837 10.397074,5.4626709 15.23937,1.9089386 21.72367,1.5551403 26.873868,4.5636611 c 4.45115,2.6001665 7.34842,7.2042069 7.814577,12.4181209 0.05917,0.661827 0.05756,2.131654 -0.0032,2.832922 -0.224929,2.599851 -1.078905,5.102844 -2.501128,7.330771 l -0.40424,0.633246 4.767861,4.910908 c 3.474596,3.578842 4.817491,4.990797 4.950821,5.205431 0.607521,0.977969 0.44441,2.27236 -0.386298,3.065494 -0.565068,0.53951 -1.399508,0.766974 -2.138276,0.582888 z M 20.906957,29.309868 c 3.219085,-0.523878 6.001938,-2.45442 7.642096,-5.301533 1.314037,-2.281006 1.779396,-4.994175 1.307508,-7.623128 -0.864319,-4.815248 -4.73254,-8.4707946 -9.481355,-8.9600708 -0.664426,-0.068457 -2.056052,-0.031126 -2.696688,0.072337 -3.731083,0.6025815 -6.897409,3.1946728 -8.3023434,6.7966568 -1.3785269,3.534277 -0.8724352,7.602658 1.3258504,10.658261 0.484559,0.673533 1.243902,1.488507 1.877785,2.01535 1.586218,1.318363 3.605582,2.180876 5.63307,2.405999 0.547121,0.06075 2.163835,0.02242 2.694077,-0.06388 z"
     id="path3958" />
</svg>
