<?xml version="1.0" encoding="UTF-8" standalone="no"?>
<svg
   viewBox="0 0 15.294913 22.888138"
   version="1.1"
   id="svg417"
   sodipodi:docname="microphone-solid.svg"
   width="15.294914"
   height="22.888138"
   inkscape:export-filename="microphone-solid.svg"
   inkscape:export-xdpi="96"
   inkscape:export-ydpi="96"
   xmlns:inkscape="http://www.inkscape.org/namespaces/inkscape"
   xmlns:sodipodi="http://sodipodi.sourceforge.net/DTD/sodipodi-0.dtd"
   xmlns="http://www.w3.org/2000/svg"
   xmlns:svg="http://www.w3.org/2000/svg">
  <defs
     id="defs421" />
  <sodipodi:namedview
     id="namedview419"
     pagecolor="#ffffff"
     bordercolor="#000000"
     borderopacity="0.25"
     inkscape:showpageshadow="2"
     inkscape:pageopacity="0.0"
     inkscape:pagecheckerboard="0"
     inkscape:deskcolor="#d1d1d1"
     showgrid="false" />
  <!--! Font Awesome Pro 6.2.1 by @fontawesome - https://fontawesome.com License - https://fontawesome.com/license (Commercial License) Copyright 2022 Fonticons, Inc. -->
  <path
     d="M 6.9423725,0 C 4.851772,0 3.1556239,1.7947037 3.1556239,4.0067803 v 6.6779677 c 0,2.212075 1.6961481,4.006779 3.7867486,4.006779 2.0905998,0 3.7867485,-1.794704 3.7867485,-4.006779 V 4.0067803 C 10.729121,1.7947037 9.0329723,0 6.9423725,0 Z M 1.8933743,9.0152553 c 0,-0.5551062 -0.4220647,-1.0016951 -0.94668713,-1.0016951 C 0.42206475,8.0135602 0,8.4601491 0,9.0152553 v 1.6694927 c 0,3.718791 2.6112789,6.790656 5.9956851,7.278983 v 1.402374 H 4.102311 c -0.5246225,0 -0.9466871,0.446588 -0.9466871,1.001695 0,0.555107 0.4220646,1.001694 0.9466871,1.001694 h 2.8400615 2.840061 c 0.5246225,0 0.9466875,-0.446587 0.9466875,-1.001694 0,-0.555107 -0.422065,-1.001695 -0.9466875,-1.001695 H 7.889059 v -1.402374 c 3.384407,-0.488327 5.995686,-3.560192 5.995686,-7.278983 V 9.0152553 c 0,-0.5551062 -0.422066,-1.0016951 -0.946688,-1.0016951 -0.524623,0 -0.946687,0.4465889 -0.946687,1.0016951 v 1.6694927 c 0,2.950825 -2.2602146,5.342373 -5.0489975,5.342373 -2.7887823,0 -5.0489982,-2.391548 -5.0489982,-5.342373 z"
     id="path415"
     style="fill:#b3b3b3;stroke-width:0.0405748" />
</svg>
